<?xml version="1.0" encoding="UTF-8" standalone="no"?>
<svg
   height="1297.3107"
   viewBox="0 0 1298.5592 1297.3107"
   width="1298.5591"
   version="1.1"
   id="svg4"
   sodipodi:docname="close2.svg"
   inkscape:version="1.2.1 (9c6d41e410, 2022-07-14)"
   xmlns:inkscape="http://www.inkscape.org/namespaces/inkscape"
   xmlns:sodipodi="http://sodipodi.sourceforge.net/DTD/sodipodi-0.dtd"
   xmlns="http://www.w3.org/2000/svg"
   xmlns:svg="http://www.w3.org/2000/svg">
  <defs
     id="defs8" />
  <sodipodi:namedview
     id="namedview6"
     pagecolor="#ffffff"
     bordercolor="#666666"
     borderopacity="1.0"
     inkscape:showpageshadow="2"
     inkscape:pageopacity="0.0"
     inkscape:pagecheckerboard="0"
     inkscape:deskcolor="#d1d1d1"
     showgrid="false"
     inkscape:zoom="0.33504412"
     inkscape:cx="231.31282"
     inkscape:cy="601.41333"
     inkscape:window-width="1817"
     inkscape:window-height="1051"
     inkscape:window-x="94"
     inkscape:window-y="-9"
     inkscape:window-maximized="1"
     inkscape:current-layer="svg4" />
  <g
     id="g687"
     transform="matrix(49.443677,0,0,49.788064,2.075653,-2.6174946)" />
  <g
     id="g689"
     transform="matrix(49.443677,0,0,49.788064,2.075653,-2.6174946)" />
  <g
     id="g691"
     transform="matrix(49.443677,0,0,49.788064,2.075653,-2.6174946)" />
  <g
     id="g693"
     transform="matrix(49.443677,0,0,49.788064,2.075653,-2.6174946)" />
  <g
     id="g695"
     transform="matrix(49.443677,0,0,49.788064,2.075653,-2.6174946)" />
  <g
     id="g697"
     transform="matrix(49.443677,0,0,49.788064,2.075653,-2.6174946)" />
  <g
     id="g699"
     transform="matrix(49.443677,0,0,49.788064,2.075653,-2.6174946)" />
  <g
     id="g701"
     transform="matrix(49.443677,0,0,49.788064,2.075653,-2.6174946)" />
  <g
     id="g703"
     transform="matrix(49.443677,0,0,49.788064,2.075653,-2.6174946)" />
  <g
     id="g705"
     transform="matrix(49.443677,0,0,49.788064,2.075653,-2.6174946)" />
  <g
     id="g707"
     transform="matrix(49.443677,0,0,49.788064,2.075653,-2.6174946)" />
  <g
     id="g709"
     transform="matrix(49.443677,0,0,49.788064,2.075653,-2.6174946)" />
  <g
     id="g711"
     transform="matrix(49.443677,0,0,49.788064,2.075653,-2.6174946)" />
  <g
     id="g713"
     transform="matrix(49.443677,0,0,49.788064,2.075653,-2.6174946)" />
  <g
     id="g715"
     transform="matrix(49.443677,0,0,49.788064,2.075653,-2.6174946)" />
  <g
     id="g4"
     transform="matrix(2.7742959,0,0,2.7742959,0,-0.62421658)">
    <path
       d="M 431.38,0.225 H 36.685 C 16.458,0.225 0,16.668 0,36.898 v 394.274 c 0,20.215 16.458,36.671 36.685,36.671 H 431.38 c 20.232,0 36.688,-16.456 36.688,-36.671 V 36.898 C 468.062,16.668 451.612,0.225 431.38,0.225 Z m -50.124,326.699 c 14.233,14.239 14.233,37.321 0,51.53 -7.116,7.11 -16.455,10.681 -25.771,10.681 -9.327,0 -18.643,-3.57 -25.747,-10.681 l -95.708,-95.695 -95.71,95.689 c -7.105,7.11 -16.42,10.681 -25.742,10.681 -9.327,0 -18.648,-3.57 -25.765,-10.681 -14.236,-14.215 -14.236,-37.291 0,-51.524 l 95.678,-95.689 -95.678,-95.704 c -14.236,-14.236 -14.236,-37.303 0,-51.521 14.227,-14.233 37.271,-14.233 51.506,0 l 95.71,95.692 95.708,-95.692 c 14.232,-14.233 37.285,-14.233 51.518,0 14.233,14.218 14.233,37.285 0,51.521 l -95.683,95.704 z"
       id="path2" />
  </g>
</svg>
