<?xml version="1.0" encoding="UTF-8" standalone="no"?>
<svg
   xmlns:dc="http://purl.org/dc/elements/1.1/"
   xmlns:cc="http://creativecommons.org/ns#"
   xmlns:rdf="http://www.w3.org/1999/02/22-rdf-syntax-ns#"
   xmlns:svg="http://www.w3.org/2000/svg"
   xmlns="http://www.w3.org/2000/svg"
   xmlns:sodipodi="http://sodipodi.sourceforge.net/DTD/sodipodi-0.dtd"
   xmlns:inkscape="http://www.inkscape.org/namespaces/inkscape"
   height="1599.9961"
   viewBox="0 0 1431.0188 1599.9961"
   width="1431.0188"
   version="1.1"
   id="svg211"
   sodipodi:docname="download.svg"
   inkscape:version="1.0.2-2 (e86c870879, 2021-01-15)">
  <metadata
     id="metadata217">
    <rdf:RDF>
      <cc:Work
         rdf:about="">
        <dc:format>image/svg+xml</dc:format>
        <dc:type
           rdf:resource="http://purl.org/dc/dcmitype/StillImage" />
      </cc:Work>
    </rdf:RDF>
  </metadata>
  <defs
     id="defs215" />
  <sodipodi:namedview
     pagecolor="#ffffff"
     bordercolor="#666666"
     borderopacity="1"
     objecttolerance="10"
     gridtolerance="10"
     guidetolerance="10"
     inkscape:pageopacity="0"
     inkscape:pageshadow="2"
     inkscape:window-width="1817"
     inkscape:window-height="1051"
     id="namedview213"
     showgrid="false"
     inkscape:zoom="0.47000115"
     inkscape:cx="389.97828"
     inkscape:cy="799.99805"
     inkscape:window-x="94"
     inkscape:window-y="-9"
     inkscape:window-maximized="1"
     inkscape:current-layer="svg211"
     inkscape:document-rotation="0" />
  <path
     d="M 715.51232,1394.0402 647.62951,1335.4354 14.06115,788.48015 h -0.002 a 47.999998,41.438329 0 0 1 0,-58.60312 47.999998,41.438329 0 0 1 67.88477,0 l 585.5645,505.52027 V 54.204241 c 0,-22.885699 21.49048,-41.438331 48,-41.438331 26.5096,0 47.9997,18.552632 48,41.438331 V 1235.4006 L 1349.0768,729.87703 a 47.999998,41.438329 0 0 1 67.8828,0 47.999998,41.438329 0 0 1 0,58.60312 L 783.39122,1335.4354 Z"
     id="path209"
     style="stroke-width:0.929139" />
  <rect
     style="fill:#000000;stroke-width:1.44886"
     id="rect221"
     width="1332.6941"
     height="115.59331"
     x="48.153584"
     y="1482.2751"
     ry="56.2024"
     rx="33.615448" />
</svg>
