<?xml version="1.0" encoding="UTF-8" standalone="no"?>
<svg
   height="1721.3867"
   viewBox="0 0 1711.7615 1721.3867"
   width="1711.7615"
   version="1.1"
   id="svg4"
   sodipodi:docname="exit.svg"
   inkscape:version="1.2.1 (9c6d41e410, 2022-07-14)"
   xmlns:inkscape="http://www.inkscape.org/namespaces/inkscape"
   xmlns:sodipodi="http://sodipodi.sourceforge.net/DTD/sodipodi-0.dtd"
   xmlns="http://www.w3.org/2000/svg"
   xmlns:svg="http://www.w3.org/2000/svg">
  <defs
     id="defs8" />
  <sodipodi:namedview
     id="namedview6"
     pagecolor="#ffffff"
     bordercolor="#666666"
     borderopacity="1.0"
     inkscape:showpageshadow="2"
     inkscape:pageopacity="0.0"
     inkscape:pagecheckerboard="0"
     inkscape:deskcolor="#d1d1d1"
     showgrid="false"
     inkscape:zoom="0.33504412"
     inkscape:cx="25.369793"
     inkscape:cy="813.32572"
     inkscape:window-width="1817"
     inkscape:window-height="1051"
     inkscape:window-x="94"
     inkscape:window-y="-9"
     inkscape:window-maximized="1"
     inkscape:current-layer="svg4" />
  <path
     fill-rule="evenodd"
     clip-rule="evenodd"
     d="m 1566.0293,10.484656 c 71.6875,0 129.8005,58.831183 129.8005,131.407644 v 1445.4839 c 0,72.5764 -58.1143,131.4076 -129.8005,131.4076 H 592.52556 c -35.8379,0 -64.9002,-29.4221 -64.9002,-65.7038 0,-36.2816 29.0623,-65.7038 64.9002,-65.7038 H 1566.0293 V 141.8923 H 592.52556 c -35.8379,0 -64.9002,-29.42222 -64.9002,-65.703875 0,-36.281649 29.0623,-65.703769 64.9002,-65.703769 z M 319.47736,522.50129 c 25.3499,-25.65076 66.4448,-25.65076 91.7948,0 25.3371,25.66392 25.3371,67.26759 0,92.9315 l -181.2664,183.49759 h 881.72184 c 35.8431,0 64.9002,29.42222 64.9002,65.70387 0,36.28165 -29.0571,65.70377 -64.9002,65.70377 H 230.00576 l 181.2664,183.49758 c 25.3371,25.664 25.3371,67.2676 0,92.9315 -25.35,25.6508 -66.4449,25.6508 -91.7948,0 L 27.426161,911.1 c -25.337,-25.66392 -25.337,-67.26759 0,-92.9315 z"
     fill="currentColor"
     id="path2069"
     style="stroke-width:130.601" />
</svg>
