<?xml version="1.0" encoding="UTF-8" standalone="no"?>
<svg
   xmlns:dc="http://purl.org/dc/elements/1.1/"
   xmlns:cc="http://creativecommons.org/ns#"
   xmlns:rdf="http://www.w3.org/1999/02/22-rdf-syntax-ns#"
   xmlns:svg="http://www.w3.org/2000/svg"
   xmlns="http://www.w3.org/2000/svg"
   xmlns:sodipodi="http://sodipodi.sourceforge.net/DTD/sodipodi-0.dtd"
   xmlns:inkscape="http://www.inkscape.org/namespaces/inkscape"
   height="1590.8727"
   viewBox="0 0 1241.7227 1590.8727"
   width="1241.7227"
   version="1.1"
   id="svg8"
   sodipodi:docname="margin.svg"
   inkscape:version="1.0.2-2 (e86c870879, 2021-01-15)">
  <metadata
     id="metadata14">
    <rdf:RDF>
      <cc:Work
         rdf:about="">
        <dc:format>image/svg+xml</dc:format>
        <dc:type
           rdf:resource="http://purl.org/dc/dcmitype/StillImage" />
      </cc:Work>
    </rdf:RDF>
  </metadata>
  <defs
     id="defs12" />
  <sodipodi:namedview
     pagecolor="#ffffff"
     bordercolor="#666666"
     borderopacity="1"
     objecttolerance="10"
     gridtolerance="10"
     guidetolerance="10"
     inkscape:pageopacity="0"
     inkscape:pageshadow="2"
     inkscape:window-width="1817"
     inkscape:window-height="1051"
     id="namedview10"
     showgrid="false"
     inkscape:zoom="0.4500694"
     inkscape:cx="795.2274"
     inkscape:cy="828.60411"
     inkscape:window-x="94"
     inkscape:window-y="-9"
     inkscape:window-maximized="1"
     inkscape:current-layer="svg8"
     inkscape:document-rotation="0" />
  <g
     id="g8"
     transform="matrix(51.703542,0,0,40.298574,-7.4273819,0)">
    <g
       id="g6">
      <path
         d="M 19,2 H 5 C 4.4,2 4,1.6 4,1 4,0.4 4.4,0 5,0 h 14 c 0.6,0 1,0.4 1,1 0,0.6 -0.4,1 -1,1 z"
         id="path4" />
    </g>
  </g>
  <g
     id="g26"
     transform="matrix(40.562468,0,0,62.519288,0,80.974165)">
    <g
       id="g24">
      <path
         d="M 1,20 C 0.4,20 0,19.6 0,19 V 5 C 0,4.4 0.4,4 1,4 1.6,4 2,4.4 2,5 v 14 c 0,0.6 -0.4,1 -1,1 z"
         id="path22" />
    </g>
  </g>
  <g
     id="g30"
     transform="matrix(49.104299,0,0,66.137115,24.132155,25.737965)">
    <path
       d="M 19,20 H 5 C 4.4,20 4,19.6 4,19 V 5 C 4,4.4 4.4,4 5,4 h 14 c 0.6,0 1,0.4 1,1 v 14 c 0,0.6 -0.4,1 -1,1 z M 5.457022,18.705496 H 18.588226 L 18.407234,5.0929337 H 5.457022 Z"
       id="path28"
       sodipodi:nodetypes="sssssssssccccc" />
  </g>
  <g
     id="g27"
     transform="matrix(40.562468,0,0,62.519288,1160.5977,80.974165)">
    <g
       id="g25">
      <path
         d="M 1,20 C 0.4,20 0,19.6 0,19 V 5 C 0,4.4 0.4,4 1,4 1.6,4 2,4.4 2,5 v 14 c 0,0.6 -0.4,1 -1,1 z"
         id="path23" />
    </g>
  </g>
  <g
     id="g33"
     transform="matrix(51.703542,0,0,40.298574,-7.4273819,1510.2755)">
    <g
       id="g31">
      <path
         d="M 19,2 H 5 C 4.4,2 4,1.6 4,1 4,0.4 4.4,0 5,0 h 14 c 0.6,0 1,0.4 1,1 0,0.6 -0.4,1 -1,1 z"
         id="path29" />
    </g>
  </g>
</svg>
