<?xml version="1.0" encoding="UTF-8" standalone="no"?>
<svg
   xmlns:dc="http://purl.org/dc/elements/1.1/"
   xmlns:cc="http://creativecommons.org/ns#"
   xmlns:rdf="http://www.w3.org/1999/02/22-rdf-syntax-ns#"
   xmlns:svg="http://www.w3.org/2000/svg"
   xmlns="http://www.w3.org/2000/svg"
   xmlns:sodipodi="http://sodipodi.sourceforge.net/DTD/sodipodi-0.dtd"
   xmlns:inkscape="http://www.inkscape.org/namespaces/inkscape"
   height="1599.9961"
   viewBox="0 0 1431.0188 1599.9961"
   width="1431.0188"
   version="1.1"
   id="svg211"
   sodipodi:docname="read.svg"
   inkscape:version="1.0.2-2 (e86c870879, 2021-01-15)">
  <metadata
     id="metadata217">
    <rdf:RDF>
      <cc:Work
         rdf:about="">
        <dc:format>image/svg+xml</dc:format>
        <dc:type
           rdf:resource="http://purl.org/dc/dcmitype/StillImage" />
        <dc:title></dc:title>
      </cc:Work>
    </rdf:RDF>
  </metadata>
  <defs
     id="defs215" />
  <sodipodi:namedview
     pagecolor="#ffffff"
     bordercolor="#666666"
     borderopacity="1"
     objecttolerance="10"
     gridtolerance="10"
     guidetolerance="10"
     inkscape:pageopacity="0"
     inkscape:pageshadow="2"
     inkscape:window-width="1817"
     inkscape:window-height="1051"
     id="namedview213"
     showgrid="false"
     inkscape:zoom="0.47000115"
     inkscape:cx="389.97828"
     inkscape:cy="799.99805"
     inkscape:window-x="94"
     inkscape:window-y="-9"
     inkscape:window-maximized="1"
     inkscape:current-layer="svg211"
     inkscape:document-rotation="0" />
  <g
     id="g63"
     transform="matrix(2.7827416,0,0,3.09717,1.4461776,10.163197)">
    <g
       id="g61">
      <path
         d="M 448,0 H 298.667 C 282.269,0 267.322,6.169 256,16.303 244.678,6.169 229.731,0 213.333,0 H 64 C 28.645,0 0,28.645 0,64 v 341.333 c 0,35.355 28.645,64 64,64 h 149.333 c 11.791,0 21.333,9.542 21.333,21.333 0,28.444 42.667,28.444 42.667,0 0,-11.791 9.542,-21.333 21.333,-21.333 H 448 c 35.355,0 64,-28.645 64,-64 V 64 C 512,28.645 483.355,0 448,0 Z M 213.333,426.667 H 64 c -11.791,0 -21.333,-9.542 -21.333,-21.333 V 64 C 42.667,52.209 52.209,42.667 64,42.667 h 149.333 c 11.791,0 21.333,9.542 21.333,21.333 v 366.306 c -6.671,-2.357 -13.852,-3.639 -21.333,-3.639 z m 256,-21.334 c 0,11.791 -9.542,21.333 -21.333,21.333 H 298.667 c -7.481,0 -14.661,1.282 -21.333,3.639 V 64 c 0,-11.791 9.542,-21.333 21.333,-21.333 H 448 c 11.791,0 21.333,9.542 21.333,21.333 z"
         id="path59" />
    </g>
  </g>
  <g
     id="g65"
     transform="matrix(2.7827416,0,0,3.09717,1.4461776,10.163197)" />
  <g
     id="g67"
     transform="matrix(2.7827416,0,0,3.09717,1.4461776,10.163197)" />
  <g
     id="g69"
     transform="matrix(2.7827416,0,0,3.09717,1.4461776,10.163197)" />
  <g
     id="g71"
     transform="matrix(2.7827416,0,0,3.09717,1.4461776,10.163197)" />
  <g
     id="g73"
     transform="matrix(2.7827416,0,0,3.09717,1.4461776,10.163197)" />
  <g
     id="g75"
     transform="matrix(2.7827416,0,0,3.09717,1.4461776,10.163197)" />
  <g
     id="g77"
     transform="matrix(2.7827416,0,0,3.09717,1.4461776,10.163197)" />
  <g
     id="g79"
     transform="matrix(2.7827416,0,0,3.09717,1.4461776,10.163197)" />
  <g
     id="g81"
     transform="matrix(2.7827416,0,0,3.09717,1.4461776,10.163197)" />
  <g
     id="g83"
     transform="matrix(2.7827416,0,0,3.09717,1.4461776,10.163197)" />
  <g
     id="g85"
     transform="matrix(2.7827416,0,0,3.09717,1.4461776,10.163197)" />
  <g
     id="g87"
     transform="matrix(2.7827416,0,0,3.09717,1.4461776,10.163197)" />
  <g
     id="g89"
     transform="matrix(2.7827416,0,0,3.09717,1.4461776,10.163197)" />
  <g
     id="g91"
     transform="matrix(2.7827416,0,0,3.09717,1.4461776,10.163197)" />
  <g
     id="g93"
     transform="matrix(2.7827416,0,0,3.09717,1.4461776,10.163197)" />
</svg>
