<?xml version="1.0" encoding="UTF-8" standalone="no"?>
<svg
   height="1721.3867"
   viewBox="0 0 1711.7615 1721.3867"
   width="1711.7615"
   version="1.1"
   id="svg4"
   sodipodi:docname="0stop.svg"
   inkscape:version="1.2.1 (9c6d41e410, 2022-07-14)"
   xmlns:inkscape="http://www.inkscape.org/namespaces/inkscape"
   xmlns:sodipodi="http://sodipodi.sourceforge.net/DTD/sodipodi-0.dtd"
   xmlns="http://www.w3.org/2000/svg"
   xmlns:svg="http://www.w3.org/2000/svg">
  <defs
     id="defs8" />
  <sodipodi:namedview
     id="namedview6"
     pagecolor="#ffffff"
     bordercolor="#666666"
     borderopacity="1.0"
     inkscape:showpageshadow="2"
     inkscape:pageopacity="0.0"
     inkscape:pagecheckerboard="0"
     inkscape:deskcolor="#d1d1d1"
     showgrid="false"
     inkscape:zoom="0.33504412"
     inkscape:cx="-11.938726"
     inkscape:cy="1186.4109"
     inkscape:window-width="1817"
     inkscape:window-height="1051"
     inkscape:window-x="94"
     inkscape:window-y="-9"
     inkscape:window-maximized="1"
     inkscape:current-layer="svg4" />
  <g
     id="g2937"
     transform="matrix(26.009771,0,0,24.552006,3.8266491,56.394195)">
	<path
   d="M 32.759,0 C 14.696,0 0,14.695 0,32.759 0,50.823 14.695,65.518 32.759,65.518 50.823,65.518 65.518,50.823 65.518,32.759 65.518,14.695 50.822,0 32.759,0 Z M 6,32.759 C 6,18.004 18.004,6 32.759,6 39.407,6 45.493,8.443 50.178,12.472 L 12.472,50.178 C 8.443,45.493 6,39.407 6,32.759 Z m 26.759,26.759 c -5.948,0 -11.447,-1.953 -15.895,-5.248 L 54.269,16.865 c 3.295,4.448 5.248,9.947 5.248,15.895 10e-4,14.754 -12.003,26.758 -26.758,26.758 z"
   id="path2935" />

</g>
</svg>
